<mxfile host="65bd71144e">
    <diagram id="ag6rxH_q8HWZ-YaJP3sc" name="第 1 页">
        <mxGraphModel dx="1282" dy="560" grid="1" gridSize="10" guides="1" tooltips="1" connect="1" arrows="1" fold="1" page="1" pageScale="1" pageWidth="827" pageHeight="1169" math="0" shadow="0">
            <root>
                <mxCell id="0"/>
                <mxCell id="1" parent="0"/>
                <mxCell id="2" value="ESP32-WROOM-32" style="rounded=1;whiteSpace=wrap;html=1;" parent="1" vertex="1">
                    <mxGeometry x="20" y="20" width="170" height="390" as="geometry"/>
                </mxCell>
                <mxCell id="45" value="" style="group" parent="1" vertex="1" connectable="0">
                    <mxGeometry x="240" y="20" width="290" height="180" as="geometry"/>
                </mxCell>
                <mxCell id="44" value="" style="rounded=0;whiteSpace=wrap;html=1;fontFamily=Helvetica;fontSize=15;" parent="45" vertex="1">
                    <mxGeometry width="280" height="180" as="geometry"/>
                </mxCell>
                <mxCell id="16" value="" style="group" parent="45" vertex="1" connectable="0">
                    <mxGeometry x="130" y="20" width="160" height="110" as="geometry"/>
                </mxCell>
                <mxCell id="12" value="" style="group" parent="16" vertex="1" connectable="0">
                    <mxGeometry x="50" width="110" height="110" as="geometry"/>
                </mxCell>
                <mxCell id="6" value="" style="ellipse;whiteSpace=wrap;html=1;aspect=fixed;" parent="12" vertex="1">
                    <mxGeometry x="-20" width="110" height="110" as="geometry"/>
                </mxCell>
                <mxCell id="5" value="旋钮" style="ellipse;whiteSpace=wrap;html=1;aspect=fixed;" parent="12" vertex="1">
                    <mxGeometry x="-5" y="15" width="80" height="80" as="geometry"/>
                </mxCell>
                <mxCell id="9" style="edgeStyle=none;html=1;" parent="12" source="5" target="6" edge="1">
                    <mxGeometry relative="1" as="geometry"/>
                </mxCell>
                <mxCell id="13" value="S1" style="rounded=0;whiteSpace=wrap;html=1;" parent="16" vertex="1">
                    <mxGeometry x="10" y="50" width="50" height="20" as="geometry"/>
                </mxCell>
                <mxCell id="14" value="S2" style="rounded=0;whiteSpace=wrap;html=1;" parent="16" vertex="1">
                    <mxGeometry x="10" y="80" width="50" height="20" as="geometry"/>
                </mxCell>
                <mxCell id="11" value="KEY" style="rounded=0;whiteSpace=wrap;html=1;" parent="16" vertex="1">
                    <mxGeometry x="10" y="20" width="50" height="20" as="geometry"/>
                </mxCell>
                <mxCell id="19" style="edgeStyle=none;html=1;exitX=1;exitY=0.5;exitDx=0;exitDy=0;entryX=0;entryY=0.5;entryDx=0;entryDy=0;" parent="45" source="18" target="14" edge="1">
                    <mxGeometry relative="1" as="geometry"/>
                </mxCell>
                <mxCell id="21" style="edgeStyle=none;html=1;exitX=1;exitY=0.5;exitDx=0;exitDy=0;entryX=0;entryY=0.5;entryDx=0;entryDy=0;" parent="45" source="20" target="13" edge="1">
                    <mxGeometry relative="1" as="geometry"/>
                </mxCell>
                <mxCell id="22" value="" style="group" parent="45" vertex="1" connectable="0">
                    <mxGeometry x="30" y="40" width="90" height="80" as="geometry"/>
                </mxCell>
                <mxCell id="3" value="D15" style="shape=step;perimeter=stepPerimeter;whiteSpace=wrap;html=1;fixedSize=1;movable=1;resizable=1;rotatable=1;deletable=1;editable=1;connectable=1;" parent="22" vertex="1">
                    <mxGeometry width="90" height="20" as="geometry"/>
                </mxCell>
                <mxCell id="18" value="D4" style="shape=step;perimeter=stepPerimeter;whiteSpace=wrap;html=1;fixedSize=1;movable=1;resizable=1;rotatable=1;deletable=1;editable=1;connectable=1;" parent="22" vertex="1">
                    <mxGeometry y="60" width="90" height="20" as="geometry"/>
                </mxCell>
                <mxCell id="20" value="D16" style="shape=step;perimeter=stepPerimeter;whiteSpace=wrap;html=1;fixedSize=1;movable=1;resizable=1;rotatable=1;deletable=1;editable=1;connectable=1;" parent="22" vertex="1">
                    <mxGeometry y="30" width="90" height="20" as="geometry"/>
                </mxCell>
                <mxCell id="17" style="edgeStyle=none;html=1;exitX=1;exitY=0.5;exitDx=0;exitDy=0;entryX=0;entryY=0.5;entryDx=0;entryDy=0;" parent="45" source="3" target="11" edge="1">
                    <mxGeometry relative="1" as="geometry">
                        <mxPoint x="170" y="50" as="targetPoint"/>
                    </mxGeometry>
                </mxCell>
                <mxCell id="23" value="旋钮" style="text;html=1;align=center;verticalAlign=middle;resizable=0;points=[];autosize=1;strokeColor=none;fillColor=none;fontSize=15;" parent="45" vertex="1">
                    <mxGeometry y="150" width="50" height="30" as="geometry"/>
                </mxCell>
                <mxCell id="46" value="" style="group" parent="1" vertex="1" connectable="0">
                    <mxGeometry x="580" y="30" width="190" height="340" as="geometry"/>
                </mxCell>
                <mxCell id="43" value="" style="rounded=0;whiteSpace=wrap;html=1;fontFamily=Helvetica;fontSize=15;" parent="46" vertex="1">
                    <mxGeometry width="190" height="340" as="geometry"/>
                </mxCell>
                <mxCell id="33" value="" style="group" parent="46" vertex="1" connectable="0">
                    <mxGeometry x="35" y="100" width="120" height="140" as="geometry"/>
                </mxCell>
                <mxCell id="24" value="显示器" style="whiteSpace=wrap;html=1;aspect=fixed;fontFamily=Helvetica;fontSize=15;" parent="33" vertex="1">
                    <mxGeometry y="20" width="120" height="120" as="geometry"/>
                </mxCell>
                <mxCell id="26" style="edgeStyle=none;html=1;exitX=0;exitY=0.25;exitDx=0;exitDy=0;entryX=1;entryY=0.25;entryDx=0;entryDy=0;fontFamily=Helvetica;fontSize=15;strokeColor=default;rounded=1;endArrow=none;endFill=0;" parent="33" source="24" target="24" edge="1">
                    <mxGeometry relative="1" as="geometry"/>
                </mxCell>
                <mxCell id="29" value="GND" style="rounded=0;whiteSpace=wrap;html=1;fontFamily=Helvetica;fontSize=15;horizontal=0;" parent="33" vertex="1">
                    <mxGeometry width="20" height="40" as="geometry"/>
                </mxCell>
                <mxCell id="30" value="UCC" style="rounded=0;whiteSpace=wrap;html=1;fontFamily=Helvetica;fontSize=15;horizontal=0;" parent="33" vertex="1">
                    <mxGeometry x="30" width="20" height="40" as="geometry"/>
                </mxCell>
                <mxCell id="31" value="SCL" style="rounded=0;whiteSpace=wrap;html=1;fontFamily=Helvetica;fontSize=15;horizontal=0;" parent="33" vertex="1">
                    <mxGeometry x="70" width="20" height="40" as="geometry"/>
                </mxCell>
                <mxCell id="32" value="SDA" style="rounded=0;whiteSpace=wrap;html=1;fontFamily=Helvetica;fontSize=15;horizontal=0;" parent="33" vertex="1">
                    <mxGeometry x="100" width="20" height="40" as="geometry"/>
                </mxCell>
                <mxCell id="40" style="edgeStyle=none;rounded=1;html=1;exitX=1;exitY=0.5;exitDx=0;exitDy=0;entryX=0.5;entryY=0;entryDx=0;entryDy=0;strokeColor=default;fontFamily=Helvetica;fontSize=15;endArrow=classicThin;endFill=1;" parent="46" source="35" target="31" edge="1">
                    <mxGeometry relative="1" as="geometry"/>
                </mxCell>
                <mxCell id="35" value="D22" style="shape=step;perimeter=stepPerimeter;whiteSpace=wrap;html=1;fixedSize=1;fontFamily=Helvetica;fontSize=15;rotation=90;size=10;" parent="46" vertex="1">
                    <mxGeometry x="80" y="40" width="70" height="20" as="geometry"/>
                </mxCell>
                <mxCell id="38" style="edgeStyle=none;rounded=1;html=1;exitX=1;exitY=0.5;exitDx=0;exitDy=0;strokeColor=default;fontFamily=Helvetica;fontSize=15;endArrow=classic;endFill=1;entryX=0.5;entryY=0;entryDx=0;entryDy=0;" parent="46" source="36" target="32" edge="1">
                    <mxGeometry relative="1" as="geometry">
                        <mxPoint x="145" y="100" as="targetPoint"/>
                    </mxGeometry>
                </mxCell>
                <mxCell id="36" value="D21" style="shape=step;perimeter=stepPerimeter;whiteSpace=wrap;html=1;fixedSize=1;fontFamily=Helvetica;fontSize=15;rotation=90;size=10;" parent="46" vertex="1">
                    <mxGeometry x="115" y="40" width="70" height="20" as="geometry"/>
                </mxCell>
                <mxCell id="41" value="&lt;span style=&quot;color: rgb(240, 240, 240); font-family: Helvetica; font-size: 15px; font-style: normal; font-variant-ligatures: normal; font-variant-caps: normal; font-weight: 400; letter-spacing: normal; orphans: 2; text-indent: 0px; text-transform: none; widows: 2; word-spacing: 0px; -webkit-text-stroke-width: 0px; background-color: rgb(42, 37, 47); text-decoration-thickness: initial; text-decoration-style: initial; text-decoration-color: initial; float: none; display: inline !important;&quot;&gt;显示器&lt;/span&gt;" style="text;whiteSpace=wrap;html=1;fontSize=15;fontFamily=Helvetica;align=center;verticalAlign=middle;" parent="46" vertex="1">
                    <mxGeometry y="300" width="80" height="40" as="geometry"/>
                </mxCell>
            </root>
        </mxGraphModel>
    </diagram>
</mxfile>